<svg width="31" height="32" viewBox="0 0 31 32" fill="none" xmlns="http://www.w3.org/2000/svg">
<g clip-path="url(#clip0_2_23411)">
<path d="M25.4455 9.63416L17.6449 3.31395C17.1894 2.93436 16.601 2.72559 15.9936 2.72559H7.18712C5.74467 2.72559 4.58691 3.88334 4.58691 5.32579V26.6968C4.58691 28.1393 5.76365 29.297 7.18712 29.297H23.8132C25.2557 29.297 26.4134 28.1393 26.4134 26.6968V11.665C26.4134 10.8868 26.0528 10.1276 25.4455 9.63416ZM17.1514 5.32579L23.7183 11.0576C23.9841 11.2854 23.8322 11.7219 23.4716 11.7219H17.8536C17.4741 11.7219 17.1514 11.4182 17.1514 11.0197V5.32579ZM22.7504 26.6778H8.231C7.79447 26.6778 7.43385 26.3172 7.43385 25.8617V6.12293C7.43385 5.6864 7.79447 5.32579 8.231 5.32579H14.779V11.7409C14.779 13.0505 15.8418 14.1133 17.1514 14.1133H23.5475V25.8807C23.5475 26.3172 23.1869 26.6778 22.7504 26.6778Z" fill="#FAA700"/>
<path d="M11.2295 17.6816H19.7703H11.2295ZM11.2295 22.2178H19.7703H11.2295Z" fill="#FAA700"/>
<path d="M11.2295 17.6816H19.7703M11.2295 22.2178H19.7703" stroke="#FAA700" stroke-width="1.15396" stroke-linecap="round" stroke-linejoin="round"/>
</g>
<defs>
<clipPath id="clip0_2_23411">
<rect width="31" height="31" fill="white" transform="translate(0 0.453125)"/>
</clipPath>
</defs>
</svg>
