<svg width="31" height="32" viewBox="0 0 31 32" fill="none" xmlns="http://www.w3.org/2000/svg">
<g clip-path="url(#clip0_2_23434)">
<path fill-rule="evenodd" clip-rule="evenodd" d="M30.4962 5.99614L26.6019 9.94864L26.5825 9.90985C24.6644 11.8668 23.2306 12.3124 20.4406 12.0218L18.445 14.0368C19.1425 15.3155 18.9681 16.9624 17.9025 18.0474C16.6044 19.3843 14.4537 19.3843 13.1169 18.0861C11.78 16.788 11.7606 14.6374 13.0781 13.3005C14.1437 12.2155 15.7712 12.0218 17.0694 12.6999L19.065 10.6849C18.7356 7.89485 19.1425 6.46114 21.0606 4.50426L24.955 0.551758L26.04 5.00801L30.4962 5.99614ZM21.2932 14.0755H21.8163V14.1142C22.5332 14.1142 23.1726 14.0367 23.7732 13.9011C23.9088 14.5017 23.9863 15.1024 23.9863 15.7417C23.9863 20.4305 20.1888 24.228 15.5001 24.228C10.8113 24.228 7.01384 20.4305 7.01384 15.7417C7.01384 11.053 10.8113 7.2555 15.5001 7.2555C16.0813 7.2555 16.6626 7.31357 17.2051 7.42985C17.0501 8.18549 16.992 8.99921 17.0501 9.90985C16.5463 9.77421 16.0426 9.67735 15.5001 9.67735C12.1676 9.67735 9.45513 12.3899 9.45513 15.7224C9.45513 19.0549 12.1676 21.7674 15.5001 21.7674C18.8326 21.7674 21.5451 19.0549 21.5451 15.7224C21.5451 15.1411 21.4482 14.5986 21.2932 14.0755ZM26.66 12.4674C27.1056 12.138 27.5319 11.7505 27.9775 11.3049L28.985 10.278C29.6438 11.9636 30.0313 13.7849 30.0313 15.703C30.0313 23.7242 23.5212 30.2343 15.5 30.2343C7.47872 30.2343 0.96875 23.7242 0.96875 15.703C0.96875 7.68171 7.47872 1.17175 15.5 1.17175C17.3212 1.17175 19.065 1.5205 20.6731 2.1405L19.685 3.148C19.2394 3.59362 18.8712 4.03925 18.5419 4.48487C17.5731 4.233 16.5462 4.078 15.5 4.078C9.08686 4.078 3.875 9.28986 3.875 15.703C3.875 22.1161 9.08686 27.328 15.5 27.328C21.9131 27.328 27.125 22.1161 27.125 15.703C27.125 14.5792 26.9506 13.4942 26.66 12.4674Z" fill="#0A85D1"/>
</g>
<defs>
<clipPath id="clip0_2_23434">
<rect width="31" height="31" fill="white" transform="translate(0 0.203125)"/>
</clipPath>
</defs>
</svg>
