<svg width="174" height="34" viewBox="0 0 174 34" fill="none" xmlns="http://www.w3.org/2000/svg">
<path d="M0.642373 33.4062V0.678976H13.5543C16.0365 0.678976 18.1513 1.15305 19.8984 2.10121C21.6456 3.03871 22.9772 4.34375 23.8934 6.01633C24.8203 7.67827 25.2837 9.59588 25.2837 11.7692C25.2837 13.9425 24.815 15.8601 23.8775 17.522C22.94 19.1839 21.5817 20.4783 19.8025 21.4052C18.0341 22.332 15.8927 22.7955 13.3785 22.7955H5.14877V17.2504H12.2599C13.5916 17.2504 14.6889 17.0213 15.5518 16.5632C16.4254 16.0945 17.0753 15.4499 17.5014 14.6296C17.9382 13.7986 18.1566 12.8452 18.1566 11.7692C18.1566 10.6825 17.9382 9.73437 17.5014 8.92471C17.0753 8.1044 16.4254 7.47052 15.5518 7.02308C14.6782 6.56499 13.5703 6.33594 12.228 6.33594H7.56176V33.4062H0.642373ZM35.487 0.678976V33.4062H28.5676V0.678976H35.487ZM49.174 33.4062V0.678976H56.0933V27.7013H70.1239V33.4062H49.174ZM91.2496 10.0913C91.1217 8.8022 90.5731 7.80078 89.6036 7.087C88.6342 6.37322 87.3185 6.01633 85.6565 6.01633C84.5273 6.01633 83.5738 6.17614 82.7961 6.49574C82.0184 6.80469 81.4218 7.23615 81.0063 7.79013C80.6015 8.3441 80.3991 8.97266 80.3991 9.67578C80.3778 10.2617 80.5003 10.7731 80.7666 11.2099C81.0436 11.6467 81.4218 12.0249 81.9012 12.3445C82.3806 12.6534 82.9346 12.9251 83.5631 13.1594C84.1917 13.3832 84.8629 13.5749 85.5766 13.7347L88.517 14.4379C89.9445 14.7575 91.2549 15.1836 92.4481 15.7163C93.6413 16.2489 94.6747 16.9041 95.5482 17.6818C96.4218 18.4595 97.0983 19.3757 97.5777 20.4304C98.0678 21.4851 98.3181 22.6942 98.3288 24.0579C98.3181 26.0607 97.8068 27.7972 96.7947 29.2674C95.7933 30.7269 94.3444 31.8615 92.4481 32.6712C90.5624 33.4702 88.2879 33.8697 85.6246 33.8697C82.9825 33.8697 80.6814 33.4648 78.7212 32.6552C76.7716 31.8455 75.2482 30.647 74.1509 29.0597C73.0642 27.4616 72.4943 25.4854 72.441 23.131H79.1367C79.2112 24.2283 79.5255 25.1445 80.0795 25.8796C80.6441 26.604 81.3952 27.1527 82.3327 27.5256C83.2808 27.8878 84.3515 28.0689 85.5447 28.0689C86.7166 28.0689 87.734 27.8984 88.5969 27.5575C89.4705 27.2166 90.147 26.7425 90.6264 26.1353C91.1058 25.5281 91.3455 24.8303 91.3455 24.0419C91.3455 23.3068 91.1271 22.6889 90.6903 22.1882C90.2641 21.6875 89.6356 21.2614 88.8046 20.9098C87.9843 20.5582 86.9776 20.2386 85.7844 19.951L82.2208 19.0561C79.4616 18.3849 77.283 17.3356 75.685 15.908C74.0869 14.4805 73.2933 12.5575 73.3039 10.1392C73.2933 8.15767 73.8206 6.42649 74.8859 4.94567C75.9619 3.46484 77.4374 2.30895 79.3124 1.47798C81.1874 0.647016 83.3181 0.231533 85.7045 0.231533C88.1335 0.231533 90.2535 0.647016 92.0646 1.47798C93.8863 2.30895 95.3032 3.46484 96.3153 4.94567C97.3274 6.42649 97.8494 8.14169 97.8813 10.0913H91.2496ZM100.526 6.38388V0.678976H127.405V6.38388H117.385V33.4062H110.546V6.38388H100.526ZM137.987 33.4062L128.623 0.678976H136.182L141.599 23.4187H141.871L147.847 0.678976H154.319L160.28 23.4666H160.567L165.985 0.678976H173.543L164.179 33.4062H157.435L151.203 12.0089H150.947L144.731 33.4062H137.987Z" fill="#050505"/>
</svg>
