<svg width="349" height="65" viewBox="0 0 349 65" fill="none" xmlns="http://www.w3.org/2000/svg">
<path d="M35.9688 0.28125C39.125 0.28125 41.9844 0.75 44.5469 1.6875C47.1094 2.625 49.2812 3.90625 51.0625 5.53125C52.875 7.15625 54.2656 9.0625 55.2344 11.25C56.2031 13.4062 56.6875 15.7031 56.6875 18.1406V46.6406C56.6875 49.0781 56.2031 51.3906 55.2344 53.5781C54.2656 55.7344 52.875 57.625 51.0625 59.25C49.2812 60.875 47.1094 62.1562 44.5469 63.0938C41.9844 64.0312 39.125 64.5 35.9688 64.5H21.5312C18.375 64.5 15.5156 64.0312 12.9531 63.0938C10.3906 62.1562 8.20312 60.875 6.39062 59.25C4.60938 57.625 3.23438 55.7344 2.26562 53.5781C1.29688 51.3906 0.8125 49.0781 0.8125 46.6406V18.1406C0.8125 15.7031 1.29688 13.4062 2.26562 11.25C3.23438 9.0625 4.60938 7.15625 6.39062 5.53125C8.20312 3.90625 10.3906 2.625 12.9531 1.6875C15.5156 0.75 18.375 0.28125 21.5312 0.28125H35.9688ZM44.5938 12.0938L43.9375 8.15625L40.9375 5.15625L36.1562 4.5H18.6719V43.2656H23.5469V29.4375H36.1562L40.9375 28.875L43.9375 25.9219L44.5938 21.8906V12.0938ZM38.9219 24L35.875 24.4688H23.5469V9.46875H35.875L39.1094 9.98438L39.5781 12.75V21.375L38.9219 24ZM71.3597 38.2969V43.2656H98.4535V38.2969H87.4379V9.46875H98.4535V4.5H71.3597V9.46875H82.4222V38.2969H71.3597ZM89.5472 0.28125C92.7035 0.28125 95.5629 0.75 98.1254 1.6875C100.688 2.625 102.86 3.90625 104.641 5.53125C106.453 7.15625 107.844 9.0625 108.813 11.25C109.782 13.4062 110.266 15.7031 110.266 18.1406V46.6406C110.266 49.0781 109.782 51.3906 108.813 53.5781C107.844 55.7344 106.453 57.625 104.641 59.25C102.86 60.875 100.688 62.1562 98.1254 63.0938C95.5629 64.0312 92.7035 64.5 89.5472 64.5H75.1097C71.9535 64.5 69.0941 64.0312 66.5316 63.0938C63.9691 62.1562 61.7816 60.875 59.9691 59.25C58.1879 57.625 56.8129 55.7344 55.8441 53.5781C54.8754 51.3906 54.391 49.0781 54.391 46.6406V18.1406C54.391 15.7031 54.8754 13.4062 55.8441 11.25C56.8129 9.0625 58.1879 7.15625 59.9691 5.53125C61.7816 3.90625 63.9691 2.625 66.5316 1.6875C69.0941 0.75 71.9535 0.28125 75.1097 0.28125H89.5472ZM172.47 38.2969H158.08V4.5H153.111V43.2656H172.47V38.2969ZM167.033 0.28125C170.189 0.28125 173.048 0.75 175.611 1.6875C178.173 2.625 180.345 3.90625 182.126 5.53125C183.939 7.15625 185.33 9.0625 186.298 11.25C187.267 13.4062 187.751 15.7031 187.751 18.1406V46.6406C187.751 49.0781 187.267 51.3906 186.298 53.5781C185.33 55.7344 183.939 57.625 182.126 59.25C180.345 60.875 178.173 62.1562 175.611 63.0938C173.048 64.0312 170.189 64.5 167.033 64.5H152.595C149.439 64.5 146.58 64.0312 144.017 63.0938C141.455 62.1562 139.267 60.875 137.455 59.25C135.673 57.625 134.298 55.7344 133.33 53.5781C132.361 51.3906 131.876 49.0781 131.876 46.6406V18.1406C131.876 15.7031 132.361 13.4062 133.33 11.25C134.298 9.0625 135.673 7.15625 137.455 5.53125C139.267 3.90625 141.455 2.625 144.017 1.6875C146.58 0.75 149.439 0.28125 152.595 0.28125H167.033ZM220.611 0.28125C223.768 0.28125 226.627 0.75 229.189 1.6875C231.752 2.625 233.924 3.90625 235.705 5.53125C237.518 7.15625 238.908 9.0625 239.877 11.25C240.846 13.4062 241.33 15.7031 241.33 18.1406V46.6406C241.33 49.0781 240.846 51.3906 239.877 53.5781C238.908 55.7344 237.518 57.625 235.705 59.25C233.924 60.875 231.752 62.1562 229.189 63.0938C226.627 64.0312 223.768 64.5 220.611 64.5H206.174C203.018 64.5 200.158 64.0312 197.596 63.0938C195.033 62.1562 192.846 60.875 191.033 59.25C189.252 57.625 187.877 55.7344 186.908 53.5781C185.939 51.3906 185.455 49.0781 185.455 46.6406V18.1406C185.455 15.7031 185.939 13.4062 186.908 11.25C187.877 9.0625 189.252 7.15625 191.033 5.53125C192.846 3.90625 195.033 2.625 197.596 1.6875C200.158 0.75 203.018 0.28125 206.174 0.28125H220.611ZM229.424 28.5938L228.768 24.5625L225.768 21.6094L220.893 21.0938H210.393L207.533 20.5312C207.377 20 207.268 19.5312 207.205 19.125C207.143 18.6875 207.033 18.2344 206.877 17.7656V12.8438L207.533 10.0781L210.627 9.46875H222.533L226.939 10.3594L228.064 5.25L222.627 4.5H210.299L205.611 5.15625L202.564 8.15625L201.955 12.0938V18.5156L202.564 22.4531L205.611 25.4062L210.299 26.0156H220.893L223.752 26.4844C223.846 26.9531 223.955 27.3906 224.08 27.7969C224.205 28.2031 224.314 28.625 224.408 29.0625V35.2031C224.346 35.6094 224.236 36.0469 224.08 36.5156C223.955 36.9844 223.846 37.4219 223.752 37.8281L220.705 38.2969H209.08L204.486 37.5469L203.314 42.6094L208.799 43.2656H220.986L225.768 42.7031L228.768 39.75L229.424 35.7188V28.5938ZM283.096 4.5H256.002V9.46875H267.065V43.2656H272.08V9.46875H283.096V4.5ZM274.19 0.28125C277.346 0.28125 280.205 0.75 282.768 1.6875C285.33 2.625 287.502 3.90625 289.283 5.53125C291.096 7.15625 292.487 9.0625 293.455 11.25C294.424 13.4062 294.908 15.7031 294.908 18.1406V46.6406C294.908 49.0781 294.424 51.3906 293.455 53.5781C292.487 55.7344 291.096 57.625 289.283 59.25C287.502 60.875 285.33 62.1562 282.768 63.0938C280.205 64.0312 277.346 64.5 274.19 64.5H259.752C256.596 64.5 253.737 64.0312 251.174 63.0938C248.612 62.1562 246.424 60.875 244.612 59.25C242.83 57.625 241.455 55.7344 240.487 53.5781C239.518 51.3906 239.033 49.0781 239.033 46.6406V18.1406C239.033 15.7031 239.518 13.4062 240.487 11.25C241.455 9.0625 242.83 7.15625 244.612 5.53125C246.424 3.90625 248.612 2.625 251.174 1.6875C253.737 0.75 256.596 0.28125 259.752 0.28125H274.19ZM324.112 6.04688H319.471L313.94 38.0156L312.862 38.3906L311.643 38.1094L308.456 4.5L303.065 5.4375L306.815 39.8438L309.721 42.7031L312.768 43.4531L315.862 42.7031L318.721 39.8438L321.815 19.1719L324.862 39.8438L327.768 42.7031L330.815 43.4531L333.909 42.7031L336.768 39.8438L340.518 5.4375L335.128 4.5L331.987 38.1094L330.721 38.3906L329.69 38.0156L324.112 6.04688ZM313.331 64.5C310.174 64.5 307.315 64.0312 304.753 63.0938C302.19 62.1562 300.003 60.875 298.19 59.25C296.409 57.625 295.034 55.7344 294.065 53.5781C293.096 51.3906 292.612 49.0781 292.612 46.6406V18.1406C292.612 15.7031 293.096 13.4062 294.065 11.25C295.034 9.0625 296.409 7.15625 298.19 5.53125C300.003 3.90625 302.19 2.625 304.753 1.6875C307.315 0.75 310.174 0.28125 313.331 0.28125H327.768C330.924 0.28125 333.784 0.75 336.346 1.6875C338.909 2.625 341.081 3.90625 342.862 5.53125C344.674 7.15625 346.065 9.0625 347.034 11.25C348.003 13.4062 348.487 15.7031 348.487 18.1406V46.6406C348.487 49.0781 348.003 51.3906 347.034 53.5781C346.065 55.7344 344.674 57.625 342.862 59.25C341.081 60.875 338.909 62.1562 336.346 63.0938C333.784 64.0312 330.924 64.5 327.768 64.5H313.331Z" fill="#050505"/>
</svg>
